<?xml version="1.0" encoding="iso-8859-1"?>
<!-- Generator: Adobe Illustrator 19.0.0, SVG Export Plug-In . SVG Version: 6.00 Build 0)  -->
<svg version="1.1" id="Capa_1" xmlns="http://www.w3.org/2000/svg" xmlns:xlink="http://www.w3.org/1999/xlink" x="0px" y="0px"
	 viewBox="0 0 512 512" style="enable-background:new 0 0 512 512;" xml:space="preserve">
<circle style="fill:#DD544C;" cx="256" cy="256" r="256"/>
<path style="fill:#39375E;" d="M65.503,427c46.865,52.174,114.844,85,190.497,85s143.632-32.826,190.497-85H65.503z"/>
<path style="fill:#EF7E7B;" d="M468.261,159.021L468.261,159.021c0-8.284-6.716-15-15-15H282.667c-8.284,0-15,6.716-15,15l0,0
	c0,8.284-6.716,15-15,15h-43.116c-8.284,0-15,6.716-15,15l0,0c0,8.284,6.716,15,15,15h4.978c8.284,0,15,6.716,15,15l0,0
	c0,8.284,6.716,15,15,15h174.045c8.284,0,15-6.716,15-15l0,0c0-8.284-6.716-15-15-15h-8.428c-8.284,0-15-6.716-15-15l0,0
	c0-8.284,6.716-15,15-15h43.116C461.545,174.021,468.261,167.305,468.261,159.021z"/>
<path style="fill:#FFFBEB;" d="M121.425,160.75H63.601l11.772-38.097c0.671-2.172,2.679-3.653,4.952-3.653h24.377
	c2.273,0,4.281,1.481,4.952,3.653L121.425,160.75z"/>
<path style="fill:#F3D75C;" d="M493.65,370.05v49.74H59.25c-3.68-4.42-7.22-8.96-10.6-13.63c-1.52-2.08-3-4.19-4.45-6.33
	c-0.99-1.45-1.97-2.92-2.93-4.4c-5.3-8.15-10.15-16.62-14.52-25.38c-1.52-3.05-2.98-6.14-4.38-9.26c-0.01-0.01-0.02-0.03-0.02-0.05
	c-4.07-9.05-7.63-18.39-10.63-27.97c-2.88-9.16-5.26-18.54-7.1-28.11c-0.58-3.04-1.12-6.09-1.59-9.16
	c-1.15-7.4-1.98-14.91-2.47-22.5C0.19,267.38,0,261.71,0,256c0-27.11,4.22-53.24,12.03-77.76c2.1-6.62,4.47-13.12,7.1-19.5H209.2
	c13.67,0,26.72,5.71,36,15.75l86.13,93.19c3.22,3.49,7.27,6.11,11.77,7.62l127.1,22.63c6.06,2.03,10.57,7.15,11.81,13.42l0.58,2.94
	l6.96,35.07l0.16,0.83l1.43,7.18l0.68,3.42l0.38,1.95L493.65,370.05z"/>
<path style="fill:#39375E;" d="M93.751,273h205.101c3.64,0,5.536-4.334,3.065-7.007l-79.858-86.412
	c-0.79-0.855-1.901-1.341-3.065-1.341H67.778c-2.797,0-4.802,2.697-3.997,5.376l25.973,86.412C90.284,271.792,91.908,273,93.751,273
	z"/>
<path style="fill:#272749;" d="M119.753,270.027L93.78,183.615c-0.805-2.678,1.2-5.375,3.997-5.375h-30
	c-2.797,0-4.802,2.697-3.997,5.375l25.973,86.412c0.531,1.765,2.155,2.973,3.998,2.973h30
	C121.908,273,120.284,271.792,119.753,270.027z"/>
<path style="fill:#39375E;" d="M65.03,273H0.56C0.19,267.38,0,261.71,0,256c0-27.11,4.22-53.24,12.03-77.76h27.03
	c1.84,0,3.47,1.21,4,2.97l25.97,86.41C69.84,270.3,67.83,273,65.03,273z"/>
<path style="fill:#E8C63A;" d="M493.65,370.05v29.78H44.2c-0.99-1.45-1.97-2.92-2.93-4.4c-5.3-8.15-10.15-16.62-14.52-25.38
	c-1.52-3.05-2.98-6.14-4.38-9.26h469.45l0.38,1.95L493.65,370.05z"/>
<g>
	<rect x="41.922" y="295.5" style="fill:#FFFBEB;" width="37.3" height="37.27"/>
	<rect x="116.53" y="295.5" style="fill:#FFFBEB;" width="37.3" height="37.27"/>
	<rect x="191.13" y="295.5" style="fill:#FFFBEB;" width="37.3" height="37.27"/>
	<rect x="265.73" y="295.5" style="fill:#FFFBEB;" width="37.3" height="37.27"/>
	<path style="fill:#FFFBEB;" d="M41.92,332.77v37.28H26.75c-1.52-3.05-2.98-6.14-4.38-9.26c-0.01-0.01-0.02-0.03-0.02-0.05
		c-4.07-9.05-7.63-18.39-10.63-27.97H41.92z"/>
	<rect x="79.22" y="332.77" style="fill:#FFFBEB;" width="37.31" height="37.28"/>
	<rect x="153.82" y="332.77" style="fill:#FFFBEB;" width="37.31" height="37.28"/>
	<rect x="228.43" y="332.77" style="fill:#FFFBEB;" width="37.31" height="37.28"/>
</g>
<g>
	<path style="fill:#D8E0C9;" d="M41.92,360.74v9.31H26.75c-1.52-3.05-2.98-6.14-4.38-9.26c-0.01-0.01-0.02-0.03-0.02-0.05H41.92z"/>
	<rect x="79.22" y="360.74" style="fill:#D8E0C9;" width="37.31" height="9.314"/>
	<rect x="153.82" y="360.74" style="fill:#D8E0C9;" width="37.31" height="9.314"/>
	<rect x="228.43" y="360.74" style="fill:#D8E0C9;" width="37.31" height="9.314"/>
</g>
<path style="fill:#FFFBEB;" d="M477.679,350.186h12.041l-7.117-35.896h-43.069c-2.477,0-4.257,2.383-3.553,4.758l0,0
	C441.451,337.516,458.418,350.186,477.679,350.186z"/>
<path style="fill:#D8E0C9;" d="M456.289,319.048L456.289,319.048c-0.703-2.375,1.076-4.758,3.553-4.758h-20.308
	c-2.477,0-4.257,2.383-3.553,4.758l0,0c5.47,18.468,22.437,31.138,41.698,31.138h12.041l-0.164-0.828
	C473.923,346.273,460.943,334.762,456.289,319.048z"/>
<path style="fill:#FFFBEB;" d="M504.56,376.53v23.13c0,3.59-2.17,6.5-4.84,6.5H48.65c-1.52-2.08-3-4.19-4.45-6.33
	c-0.99-1.45-1.97-2.92-2.93-4.4c-5.3-8.15-10.15-16.62-14.52-25.38h472.97C502.39,370.05,504.56,372.95,504.56,376.53z"/>
<path style="fill:#D8E0C9;" d="M512,402.16v25.39c0,3.7-2.24,6.73-5.02,6.73H72.28c-1.54-1.59-3.07-3.21-4.56-4.84
	c-0.01-0.02-0.03-0.03-0.05-0.05c-0.72-0.79-1.45-1.59-2.17-2.39h0.019c-2.132-2.369-4.233-4.763-6.269-7.21
	c-3.68-4.42-7.22-8.96-10.6-13.63c-1.52-2.08-3-4.19-4.45-6.33c-0.99-1.45-1.97-2.92-2.93-4.4h465.71
	C509.76,395.43,512,398.45,512,402.16z"/>
<circle style="fill:#39375E;" cx="378.4" cy="418.93" r="74.17"/>
<path style="fill:#272749;" d="M390.496,481.003c-40.965,0-74.174-33.209-74.174-74.174c0-17.399,6.007-33.386,16.038-46.037
	c-17.134,13.587-28.137,34.57-28.137,58.136c0,40.965,33.209,74.174,74.174,74.174c23.566,0,44.549-11.003,58.136-28.137
	C423.882,474.996,407.895,481.003,390.496,481.003z"/>
<circle style="fill:#C7CEB6;" cx="378.4" cy="418.93" r="39.29"/>
<path style="fill:#FFFBEB;" d="M378.435,400.221c-0.026,0-0.052,0-0.078,0c-2.505,0.005-4.821-1.326-6.078-3.493l-8.318-14.342
	c-4.859,1.917-9.416,4.833-13.345,8.762s-6.845,8.486-8.762,13.345l14.342,8.318c2.167,1.257,3.498,3.573,3.493,6.078
	c0,0.026,0,0.052,0,0.078c0.005,2.505-1.326,4.821-3.493,6.078l-14.342,8.318c1.917,4.859,4.833,9.416,8.762,13.345
	s8.486,6.845,13.345,8.762l8.318-14.342c1.257-2.167,3.573-3.498,6.078-3.493c0.026,0,0.052,0,0.078,0
	c2.505-0.005,4.821,1.326,6.078,3.493l8.318,14.342c4.859-1.917,9.416-4.833,13.345-8.762s6.845-8.486,8.762-13.345l-14.342-8.318
	c-2.167-1.257-3.498-3.573-3.493-6.078c0-0.026,0-0.052,0-0.078c-0.005-2.505,1.326-4.821,3.493-6.078l14.342-8.318
	c-1.917-4.859-4.833-9.416-8.762-13.345s-8.486-6.845-13.345-8.762l-8.318,14.342C383.257,398.895,380.941,400.226,378.435,400.221z
	"/>
<circle style="fill:#D8E0C9;" cx="378.4" cy="418.93" r="25.745"/>
<circle style="fill:#FFFBEB;" cx="378.4" cy="418.93" r="14.05"/>
<path style="fill:#39375E;" d="M133.641,303h-26.38c-8.221,0-14.886-6.665-14.886-14.886l0,0c0-2.602,2.109-4.712,4.712-4.712h46.73
	c2.602,0,4.712,2.109,4.712,4.712l0,0C148.527,296.335,141.862,303,133.641,303z"/>
<path style="fill:#272749;" d="M110.265,288.114L110.265,288.114c0-2.602,2.109-4.712,4.712-4.712H97.086
	c-2.602,0-4.712,2.109-4.712,4.712l0,0c0,8.221,6.665,14.886,14.886,14.886h17.891C116.93,303,110.265,296.335,110.265,288.114z"/>
<g>
</g>
<g>
</g>
<g>
</g>
<g>
</g>
<g>
</g>
<g>
</g>
<g>
</g>
<g>
</g>
<g>
</g>
<g>
</g>
<g>
</g>
<g>
</g>
<g>
</g>
<g>
</g>
<g>
</g>
</svg>
